<?xml version="1.0" standalone="no"?>
<!DOCTYPE svg PUBLIC "-//W3C//DTD SVG 20010904//EN"
 "http://www.w3.org/TR/2001/REC-SVG-20010904/DTD/svg10.dtd">
<svg version="1.0" xmlns="http://www.w3.org/2000/svg"
 width="1536.000000pt" height="1024.000000pt" viewBox="0 0 1536.000000 1024.000000"
 preserveAspectRatio="xMidYMid meet">

<g transform="translate(0.000000,1024.000000) scale(0.100000,-0.100000)"
fill="#000000" stroke="none">
<path d="M2495 7371 c-43 -19 -67 -48 -78 -93 -6 -22 -17 -29 -65 -43 -123
-35 -270 -131 -378 -247 -147 -158 -233 -342 -265 -572 l-12 -84 -50 -5 c-62
-5 -97 -39 -97 -92 0 -93 39 -115 199 -115 l121 0 0 -70 c0 -57 -3 -70 -16
-70 -35 0 -82 -33 -105 -73 -22 -39 -24 -53 -24 -177 0 -107 4 -146 19 -190
31 -88 73 -147 135 -189 51 -35 59 -45 75 -97 24 -78 90 -205 138 -265 l38
-48 0 -125 0 -124 -292 -96 c-161 -53 -332 -116 -381 -140 -229 -114 -390
-303 -446 -526 -21 -82 -56 -489 -55 -635 0 -107 22 -160 81 -196 l38 -24
1216 -3 c972 -2 1218 0 1226 10 15 19 55 177 48 188 -3 6 -32 10 -64 10 l-58
0 -5 112 c-4 106 -6 112 -32 135 l-27 23 -619 0 -618 0 1 84 c2 77 0 87 -22
110 -20 21 -34 26 -74 26 l-49 0 6 83 c3 45 11 170 16 277 6 107 13 222 16
256 5 61 6 61 43 73 51 15 48 16 61 -26 30 -95 119 -193 227 -250 101 -55 198
-75 352 -76 147 0 228 14 322 56 113 50 226 169 265 277 16 44 21 50 39 45 62
-20 105 -27 128 -21 29 7 73 72 83 123 7 33 7 33 -181 86 l-50 14 -3 121 -3
122 55 73 c56 74 99 158 130 254 15 45 26 59 78 95 113 80 158 191 158 388 -1
159 -27 214 -112 235 -27 7 -28 9 -28 76 l0 69 124 0 c119 0 126 1 155 26 79
66 33 184 -72 184 l-34 0 -18 108 c-31 190 -80 318 -177 458 -113 164 -319
316 -476 349 -24 5 -37 16 -51 43 -46 90 -83 102 -323 102 -166 0 -199 -3
-233 -19z m375 -366 c0 -197 7 -232 49 -255 35 -18 86 -12 115 15 25 24 26 27
26 150 0 69 4 125 9 125 20 0 91 -35 152 -76 170 -112 295 -314 334 -540 8
-48 12 -90 9 -93 -9 -9 -1638 -11 -1653 -2 -18 11 11 158 51 260 70 179 218
347 375 425 28 15 53 26 55 26 3 0 8 -55 11 -122 5 -81 12 -129 22 -144 29
-44 131 -40 155 7 6 10 10 103 10 207 0 104 3 192 7 195 3 4 66 7 140 7 l133
0 0 -185z m542 -1024 c3 -158 11 -177 79 -187 56 -9 63 -23 55 -104 -11 -124
-51 -186 -137 -211 -50 -15 -52 -19 -72 -104 -9 -38 -37 -112 -62 -163 -62
-125 -175 -242 -285 -296 -357 -174 -751 36 -869 463 -11 41 -23 76 -26 79 -3
3 -28 15 -56 26 -44 18 -57 29 -83 76 -27 48 -30 64 -31 133 0 87 0 87 71 106
57 15 64 37 64 191 l0 130 674 0 674 0 4 -139z m-1002 -1243 c115 -58 185 -73
330 -73 138 1 206 17 325 79 33 17 63 32 68 34 4 2 7 -54 7 -124 0 -150 -13
-189 -87 -254 -147 -129 -513 -130 -655 -2 -69 62 -78 92 -78 247 0 75 3 135
8 133 4 -1 41 -20 82 -40z m-565 -360 c-4 -13 -18 -229 -31 -480 l-7 -128 -54
0 c-44 0 -58 -5 -78 -25 l-25 -24 0 -221 0 -220 -242 2 -243 3 3 95 c15 498
45 613 202 771 94 94 179 145 345 205 96 35 137 42 130 22z"/>
<path d="M6803 7370 c-70 -15 -96 -38 -122 -110 -7 -20 -22 -30 -72 -44 -294
-88 -537 -353 -619 -675 -18 -73 -37 -187 -32 -203 1 -5 -12 -8 -28 -8 -17 0
-45 -6 -64 -14 -65 -27 -73 -121 -15 -170 28 -24 39 -26 120 -26 l89 0 0 -67
0 -68 -48 -15 c-41 -13 -50 -21 -72 -65 -22 -45 -25 -62 -25 -170 1 -131 17
-205 62 -282 27 -47 86 -104 132 -127 19 -10 34 -29 41 -53 37 -114 126 -266
195 -333 l35 -34 0 -120 0 -121 -223 -72 c-128 -42 -265 -94 -322 -123 -166
-83 -301 -212 -380 -361 -87 -166 -108 -293 -103 -631 3 -238 4 -245 29 -293
15 -30 42 -62 68 -80 l43 -30 985 -3 c911 -2 987 -1 1004 14 27 25 24 46 -21
128 -70 127 -102 313 -80 459 19 129 79 117 -559 117 l-548 0 -6 143 c-4 78
-7 219 -7 314 l0 171 62 21 c34 11 62 20 62 18 1 -1 18 -36 38 -77 64 -129
194 -236 343 -283 99 -31 271 -31 370 0 152 48 273 150 341 288 20 41 40 75
43 75 3 0 82 -25 174 -55 93 -30 179 -55 192 -55 13 0 35 10 49 23 27 23 53
103 43 129 -3 10 -88 42 -231 89 l-226 73 0 121 0 121 41 39 c70 68 165 224
198 326 8 25 28 49 63 75 97 73 148 166 168 307 17 117 -6 253 -48 290 -9 8
-34 20 -54 27 l-38 12 0 69 0 69 91 0 c75 0 98 4 125 21 46 28 60 80 36 129
-20 41 -52 60 -104 60 -37 0 -38 1 -38 39 0 68 -48 232 -99 336 -128 263 -339
449 -577 510 -70 18 -72 20 -95 68 -36 75 -71 89 -223 93 -66 2 -140 -1 -163
-6z m249 -400 c9 -74 24 -196 33 -270 14 -122 18 -137 41 -157 35 -32 103 -31
140 1 l28 23 -24 222 c-12 122 -21 224 -18 226 10 11 147 -67 220 -125 85 -68
157 -163 213 -282 36 -75 89 -263 79 -279 -3 -5 -345 -9 -805 -9 l-799 0 0 24
c0 49 52 224 89 301 51 107 116 192 197 259 69 57 188 125 199 114 3 -3 1 -52
-5 -109 -35 -336 -35 -348 3 -374 24 -17 89 -20 116 -5 10 5 23 22 29 37 9 21
62 485 62 536 0 4 42 6 93 5 l92 -3 17 -135z m608 -989 l0 -139 31 -26 c18
-15 43 -26 60 -26 23 0 32 -6 40 -27 16 -41 -3 -153 -36 -209 -25 -43 -37 -51
-117 -82 -20 -8 -30 -22 -38 -54 -35 -142 -102 -258 -207 -362 -78 -76 -165
-126 -278 -157 -67 -18 -97 -21 -195 -16 -175 7 -287 56 -414 181 -80 79 -137
175 -177 298 -31 96 -32 98 -69 108 -53 14 -85 43 -114 103 -18 36 -26 72 -28
118 -3 76 9 99 54 99 19 0 40 10 59 29 l29 29 0 136 0 136 700 0 700 0 0 -139z
m-886 -1281 c156 -40 359 -19 497 50 l61 31 -4 -138 c-3 -131 -5 -141 -33
-192 -91 -165 -331 -228 -529 -140 -61 26 -146 107 -174 163 -26 50 -41 200
-28 269 l7 36 62 -29 c34 -16 98 -39 141 -50z m-714 -477 c0 -71 3 -201 7
-290 l6 -163 -36 0 c-42 0 -73 -25 -83 -67 -4 -14 -4 -116 -1 -225 l7 -198
-205 0 -205 0 0 123 c1 189 18 424 36 485 31 110 82 192 173 283 72 72 102 94
181 133 52 25 101 46 108 46 9 0 12 -32 12 -127z"/>
<path d="M12120 7369 c-32 -13 -70 -48 -80 -74 -6 -17 -23 -23 -93 -33 -249
-36 -494 -152 -598 -285 -56 -70 -98 -157 -115 -236 -15 -75 -37 -374 -38
-531 l-1 -105 38 -48 c48 -63 47 -86 -7 -139 -67 -66 -78 -129 -52 -280 17
-91 74 -206 122 -246 23 -19 40 -49 59 -102 38 -106 98 -222 162 -312 29 -43
58 -80 63 -83 6 -4 10 -62 10 -131 l0 -125 -82 -39 c-46 -21 -162 -67 -258
-103 -202 -75 -333 -131 -408 -176 -196 -116 -310 -264 -363 -471 -18 -74 -22
-122 -26 -365 -4 -278 -4 -280 19 -325 17 -33 35 -51 68 -67 l44 -23 1528 0
c939 0 1529 4 1533 9 3 6 -18 53 -46 105 l-51 96 -1449 0 -1449 0 0 158 c1
312 24 434 105 548 89 124 189 187 476 300 79 31 190 76 247 100 57 24 105 44
107 44 2 0 11 -22 20 -49 43 -129 187 -258 354 -316 139 -49 315 -56 459 -19
186 48 362 201 412 357 14 44 6 44 125 -4 326 -132 541 -217 543 -214 2 2 -21
36 -51 77 -50 66 -122 177 -129 199 -3 9 -213 89 -405 156 l-73 25 0 105 0
106 38 51 c93 125 147 226 203 380 19 51 41 90 61 111 125 121 168 409 75 508
-64 67 -65 97 -7 163 16 19 32 48 35 66 3 18 -1 150 -9 293 -23 389 -59 489
-231 635 -123 105 -383 200 -579 212 -33 2 -42 8 -63 41 -14 22 -39 45 -58 53
-39 16 -148 18 -185 3z m380 -297 c337 -83 483 -205 520 -434 13 -83 25 -298
16 -298 -4 0 -48 20 -99 44 -170 81 -356 129 -574 147 -294 25 -624 -33 -867
-152 -44 -22 -81 -39 -84 -39 -3 0 -2 66 1 148 10 224 37 304 136 402 87 87
227 148 436 190 128 26 395 22 515 -8z m-50 -743 c149 -19 316 -70 460 -142
35 -17 66 -37 68 -44 6 -21 -48 -47 -97 -46 -25 1 -120 15 -211 32 -368 69
-592 68 -957 -4 -152 -30 -177 -33 -210 -22 -27 8 -38 18 -38 31 0 42 234 140
430 181 152 32 370 37 555 14z m12 -354 c62 -8 172 -28 243 -45 80 -18 158
-30 203 -30 l72 0 0 -90 c0 -338 -95 -609 -283 -807 -137 -144 -269 -209 -445
-220 -117 -7 -193 6 -282 48 -139 65 -260 182 -353 344 -108 186 -156 375
-157 613 l0 112 43 0 c43 0 148 18 272 46 197 44 481 56 687 29z m-629 -1289
c23 -13 83 -39 132 -56 78 -28 107 -33 215 -37 153 -6 261 16 379 77 42 22 80
40 84 40 4 0 7 -52 7 -116 0 -111 -1 -119 -32 -175 -51 -98 -132 -156 -263
-189 -135 -35 -259 -23 -381 36 -91 43 -167 122 -189 196 -18 61 -21 248 -4
248 6 0 29 -11 52 -24z"/>
<path d="M4374 3428 c-174 -227 -254 -336 -254 -347 0 -7 31 -11 93 -11 220 1
303 114 263 359 -9 52 -17 96 -19 98 -2 2 -40 -43 -83 -99z"/>
</g>
</svg>
